<?xml version="1.0" encoding="utf-8"?>
<!-- Generator: Adobe Illustrator 15.0.0, SVG Export Plug-In . SVG Version: 6.00 Build 0)  -->
<!DOCTYPE svg PUBLIC "-//W3C//DTD SVG 1.1//EN" "http://www.w3.org/Graphics/SVG/1.1/DTD/svg11.dtd">
<svg version="1.1" xmlns="http://www.w3.org/2000/svg" xmlns:xlink="http://www.w3.org/1999/xlink" x="0px" y="0px"
	 width="841.89px" height="595.28px" viewBox="0 0 841.89 595.28" enable-background="new 0 0 841.89 595.28" xml:space="preserve">
<g id="Layer_3">
	<path opacity="0.5" d="M580.043,302.67l-16.783-13.274c-0.302-2.814-1.304-5.003-3.024-6.099c-0.165-0.105-0.336-0.201-0.515-0.287
		l-104.162-73.428l-8.531-34.759c-0.725-2.952-3.297-4.963-6.186-5.112c-1.604-1.782-4.112-2.647-6.605-2.035l-76.666,29.042
		c-3.608,0.885-5.815,4.528-4.931,8.138l10.115,80.807c0.725,2.953,3.296,4.965,6.185,5.113c1.605,1.782,4.113,2.646,6.604,2.035
		l43.496-10.676l124.327,35.176c2.038,0.973,4.594,0.426,7.202-1.267l20.867,4.679c1.475,0.701,4.595-2.77,6.973-7.756
		C580.785,307.984,581.518,303.373,580.043,302.67z"/>
</g>
<g id="Layer_2">
	<path fill="#E94E1B" stroke="#000000" stroke-miterlimit="10" d="M384.092,284.941c-3.608,0.885-7.252-1.321-8.136-4.931
		l-10.115-80.806c-0.885-3.609,1.322-7.252,4.93-8.138l76.666-29.042c3.609-0.886,7.252,1.322,8.137,4.929l21.648,88.2
		c0.886,3.609-1.321,7.253-4.929,8.138L384.092,284.941z"/>
	<path fill="#F39200" stroke="#000000" stroke-miterlimit="10" d="M388.746,287.16c-3.608,0.885-7.251-1.322-8.136-4.931
		l-10.115-80.806c-0.885-3.61,1.322-7.253,4.93-8.138l76.665-29.042c3.609-0.886,7.253,1.322,8.139,4.929l21.647,88.201
		c0.885,3.609-1.321,7.252-4.93,8.138L388.746,287.16z"/>
	<path fill="#F39200" stroke="#000000" stroke-miterlimit="10" d="M409.77,270.126l146.798,41.534l16.354-34.301l-124.693-87.901
		c-2.318-2.289-4.988-4.206-8.008-5.646c-18.211-8.682-41.9,3.005-52.913,26.103c-11.013,23.099-5.177,48.862,13.033,57.544
		C403.36,268.898,406.531,269.766,409.77,270.126z"/>
	<path fill="#F39200" stroke="#000000" stroke-miterlimit="10" d="M556.568,311.66c-4.717-2.25-4.879-11.748-0.362-21.222
		c4.516-9.472,11.999-15.328,16.716-13.079c0.179,0.085,0.35,0.181,0.515,0.287c4.207,2.681,4.193,11.821-0.15,20.937
		C568.769,308.055,561.285,313.91,556.568,311.66z"/>
	<path fill="#F39200" stroke="#000000" stroke-miterlimit="10" d="M560.059,309.561l24.579,5.512l8.606-18.053l-19.757-15.626
		c-0.398-0.471-0.864-0.853-1.407-1.112c-3.972-1.894-10.273,3.038-14.077,11.014c-3.803,7.978-3.665,15.978,0.306,17.871
		C558.852,309.426,559.441,309.547,560.059,309.561z"/>
	
		<ellipse transform="matrix(-0.4303 0.9027 -0.9027 -0.4303 1118.6377 -93.8753)" fill="#F39200" stroke="#000000" stroke-miterlimit="10" cx="588.941" cy="306.046" rx="10" ry="2.956"/>
	<path fill="#E94E1B" stroke="#000000" stroke-width="0.5" stroke-miterlimit="10" d="M589.612,306.564
		c-1.096,2.297-2.475,4.01-3.381,4.307c0.07,0.182,0.171,0.314,0.311,0.381c0.819,0.391,2.553-1.539,3.872-4.305
		c1.32-2.77,1.728-5.33,0.908-5.721c-0.14-0.066-0.307-0.061-0.492-0.002C591.172,302.115,590.708,304.266,589.612,306.564z"/>
	<path fill="#E6332A" stroke="#000000" stroke-width="0.5" stroke-miterlimit="10" d="M587.449,305.533
		c-1.095,2.297-1.558,4.447-1.218,5.338c0.906-0.297,2.285-2.01,3.381-4.307c1.096-2.299,1.56-4.449,1.218-5.34
		C589.925,301.521,588.545,303.234,587.449,305.533z"/>
	<line fill="#F39200" stroke="#000000" stroke-miterlimit="10" x1="450.813" y1="161.949" x2="456.613" y2="164.715"/>
	<line fill="#F39200" stroke="#000000" stroke-miterlimit="10" x1="394.649" y1="286.585" x2="389.739" y2="284.247"/>
	<path fill="#FFFFFF" stroke="#000000" stroke-miterlimit="10" d="M460.244,284.036l51.697,14.813
		c-3.657-1.744-1.089-14.763,4.809-27.13c5.897-12.371,14.395-22.562,18.052-20.818l-43.859-30.918
		c-0.28-0.274-0.591-0.495-0.935-0.659c-5.359-2.555-16.463,9.546-25.105,27.676c-8.644,18.129-11.111,34.168-5.751,36.723
		C459.493,283.885,459.858,283.988,460.244,284.036z"/>
	<line opacity="0.5" x1="645.286" y1="41.649" x2="651.087" y2="44.415"/>
	<line x1="961.381" y1="198.634" x2="961.381" y2="192.207"/>
</g>
<g id="Layer_1">
	<path opacity="0.5" d="M447.34,296.022l-29.004-34.123l-24.159-126.931c-0.042-2.258-1.675-4.299-4.357-5.875l-5.149-20.755
		c-0.031-1.633-4.533-2.871-10.054-2.767s-9.973,1.512-9.942,3.146l-4.363,20.949c-2.382,1.528-3.892,3.404-4.103,5.434
		c-0.02,0.195-0.029,0.391-0.025,0.588l-19.073,126.008l-27.269,23.179c-2.317,1.969-2.965,5.169-1.807,7.819
		c-0.875,2.232-0.526,4.863,1.135,6.818l73.541,66.521c2.405,2.83,6.652,3.176,9.483,0.769l54.476-56.143
		c2.316-1.968,2.965-5.168,1.806-7.816C449.352,300.607,449.002,297.979,447.34,296.022z"/>
	<path fill="#E94E1B" stroke="#000000" stroke-miterlimit="10" d="M465.106,316.296c2.352,2.876,1.928,7.114-0.948,9.466
		l-68.589,43.905c-2.876,2.353-7.115,1.928-9.467-0.948l-59.209-56.704c-2.352-2.877-1.928-7.115,0.948-9.467l70.299-57.499
		c2.876-2.352,7.115-1.928,9.467,0.948L465.106,316.296z"/>
	<path fill="#F39200" stroke="#000000" stroke-miterlimit="10" d="M465.106,311.141c2.352,2.876,1.928,7.114-0.948,9.466
		l-68.589,43.905c-2.876,2.353-7.115,1.928-9.467-0.948l-59.209-56.704c-2.352-2.877-1.928-7.115,0.948-9.467l70.299-57.499
		c2.876-2.352,7.115-1.928,9.467,0.948L465.106,311.141z"/>
	<path opacity="0.3" d="M445.162,281.8l-25.754-106.88L374,177.212L355.795,281.8c-1.068,3.078-1.649,6.313-1.649,9.659
		c0,20.174,20.743,36.527,46.333,36.527c25.589,0,46.333-16.354,46.333-36.527C446.812,288.114,446.23,284.878,445.162,281.8z"/>
	<path fill="#F39200" stroke="#000000" stroke-miterlimit="10" d="M440.684,299.493L415,149.109h-38l-25.684,150.384
		c-1.068,3.078-1.65,6.313-1.65,9.659c0,20.174,20.744,36.528,46.333,36.528c25.589,0,46.333-16.354,46.333-36.528
		C442.333,305.808,441.752,302.571,440.684,299.493z"/>
	<path fill="#F39200" stroke="#000000" stroke-miterlimit="10" d="M415,149.109c0,5.225-8.507,9.46-19,9.46
		c-10.494,0-19-4.235-19-9.46c0-0.198,0.012-0.394,0.036-0.588c0.609-4.951,8.867-8.873,18.964-8.873
		C406.493,139.648,415,143.884,415,149.109z"/>
	<path fill="#F39200" stroke="#000000" stroke-miterlimit="10" d="M411.601,146.863L406,122.304h-20l-5.602,24.559
		c-0.254,0.563-0.399,1.146-0.399,1.749c0,4.4,7.164,7.966,16,7.966c8.837,0,16-3.566,16-7.966
		C412,148.01,411.854,147.426,411.601,146.863z"/>
	<ellipse fill="#F39200" stroke="#000000" stroke-miterlimit="10" cx="396" cy="122.304" rx="10" ry="2.957"/>
	<path fill="#E94E1B" stroke="#000000" stroke-width="0.5" stroke-miterlimit="10" d="M396.179,121.476
		c2.546,0,4.687,0.507,5.343,1.198c0.134-0.142,0.211-0.29,0.211-0.444c0-0.907-2.487-1.642-5.554-1.642s-5.554,0.735-5.554,1.642
		c0,0.154,0.077,0.303,0.211,0.444C391.492,121.982,393.633,121.476,396.179,121.476z"/>
	<path fill="#E6332A" stroke="#000000" stroke-width="0.5" stroke-miterlimit="10" d="M396.179,123.871
		c2.546,0,4.687-0.507,5.343-1.198c-0.656-0.691-2.797-1.198-5.343-1.198s-4.687,0.507-5.343,1.198
		C391.492,123.364,393.633,123.871,396.179,123.871z"/>
	<line fill="#F39200" stroke="#000000" stroke-miterlimit="10" x1="325.374" y1="309" x2="325.374" y2="302.573"/>
	<line fill="#F39200" stroke="#000000" stroke-miterlimit="10" x1="466.625" y1="315.374" x2="466.626" y2="320.813"/>
	<path fill="#FFFFFF" stroke="#000000" stroke-miterlimit="10" d="M431.517,247.946l-8.876-53.04c0,4.051-12.857,7.336-26.56,7.336
		c-13.704,0-26.56-3.285-26.56-7.336l-9.034,52.896c-0.126,0.37-0.192,0.746-0.192,1.126c0,5.938,15.701,10.752,35.787,10.752
		c20.083,0,35.622-4.676,35.622-10.614C431.704,248.689,431.64,248.315,431.517,247.946z"/>
	<line x1="622.381" y1="253.187" x2="622.381" y2="246.76"/>
</g>
</svg>
