<?xml version="1.0" encoding="utf-8"?>
<!-- Generator: Adobe Illustrator 15.0.0, SVG Export Plug-In . SVG Version: 6.00 Build 0)  -->
<!DOCTYPE svg PUBLIC "-//W3C//DTD SVG 1.1//EN" "http://www.w3.org/Graphics/SVG/1.1/DTD/svg11.dtd">
<svg version="1.1" id="Layer_1" xmlns="http://www.w3.org/2000/svg" xmlns:xlink="http://www.w3.org/1999/xlink" x="0px" y="0px"
	 width="200px" height="50px" viewBox="0 0 200 50" enable-background="new 0 0 200 50" xml:space="preserve">
<path fill="#085E54" d="M198.834,43.922c0,2.038-1.449,3.69-3.236,3.69H4.252c-1.787,0-3.236-1.652-3.236-3.69V5.804
	c0-2.038,1.449-3.69,3.236-3.69h191.346c1.787,0,3.236,1.652,3.236,3.69V43.922z"/>
<g>
	<path fill="#FFFFFF" d="M38.743,26.502l-0.699,0.141l-1.45,1.609c0,0,0.12-0.021-0.626-0.023c-0.747-0.001-3.095-1.976-3.095-1.976
		s-1.585-1.753-1.991-2.612c-0.319-0.675,0-0.747,0-0.747l1.189-1.174l-0.007-0.692l-1.416-3.693h-1.493
		c0,0-3.126,1.579-1.509,5.622s4.532,6.886,8.573,8.509c4.042,1.622,5.414-1.486,5.414-1.486l0.305-1.657L38.743,26.502z"/>
	<path fill="#FFFFFF" d="M34.373,9.904c-8.012,0-14.53,6.518-14.53,14.53c0,2.599,0.944,5.451,2.143,7.563l-2.722,7.825l8.165-2.52
		c1.842,0.846,4.788,1.661,6.944,1.661c8.012,0,14.53-6.518,14.53-14.53C48.903,16.422,42.385,9.904,34.373,9.904z M34.373,36.351
		c-1.266,0-2.484-0.2-3.63-0.566c-1.18-0.379-2.182-0.795-3.044-1.282l-2.276,0.888l-2.31,0.817l0.577-1.937l0.823-2.773
		c-0.634-1.01-1.134-2.217-1.57-3.693c-0.316-1.069-0.488-2.2-0.488-3.37c0-6.571,5.346-11.917,11.917-11.917
		S46.29,17.863,46.29,24.434C46.29,31.005,40.944,36.351,34.373,36.351z"/>
</g>
<g>
	<path fill="#FFFFFF" d="M60.731,29.198l0.391,2.683l0.573-2.418l4.024-14.197h2.264l3.927,14.197l0.559,2.46l0.433-2.739
		l3.158-13.917h2.697l-4.932,20.345h-2.446l-4.192-14.826l-0.321-1.551l-0.321,1.551l-4.346,14.826h-2.445l-4.919-20.345h2.683
		L60.731,29.198z"/>
	<path fill="#FFFFFF" d="M83.913,22.323c1.146-1.407,2.636-2.11,4.471-2.11c3.195,0,4.807,1.802,4.835,5.408v9.991h-2.585V25.606
		c-0.009-1.09-0.258-1.896-0.748-2.417c-0.489-0.521-1.251-0.782-2.285-0.782c-0.838,0-1.574,0.223-2.208,0.67
		s-1.127,1.034-1.481,1.761v10.773h-2.585V14.148h2.585V22.323z"/>
	<path fill="#FFFFFF" d="M106.424,35.611c-0.148-0.298-0.27-0.829-0.362-1.593c-1.202,1.248-2.637,1.873-4.305,1.873
		c-1.49,0-2.713-0.422-3.667-1.266c-0.955-0.843-1.433-1.911-1.433-3.206c0-1.575,0.599-2.798,1.796-3.668
		c1.197-0.871,2.88-1.307,5.051-1.307h2.515v-1.188c0-0.904-0.271-1.624-0.81-2.159c-0.541-0.536-1.337-0.804-2.39-0.804
		c-0.923,0-1.695,0.233-2.32,0.699c-0.624,0.466-0.936,1.03-0.936,1.691h-2.599c0-0.754,0.268-1.483,0.803-2.187
		c0.536-0.704,1.262-1.26,2.18-1.67c0.917-0.41,1.925-0.615,3.025-0.615c1.742,0,3.107,0.436,4.095,1.306
		c0.986,0.871,1.499,2.07,1.537,3.599v6.958c0,1.389,0.177,2.492,0.531,3.312v0.224H106.424z M102.135,33.642
		c0.81,0,1.578-0.21,2.306-0.629c0.726-0.42,1.252-0.964,1.578-1.636v-3.102h-2.025c-3.167,0-4.751,0.927-4.751,2.78
		c0,0.811,0.27,1.444,0.81,1.901C100.593,33.413,101.287,33.642,102.135,33.642z"/>
	<path fill="#FFFFFF" d="M116.164,16.831v3.661h2.822v1.998h-2.822v9.388c0,0.606,0.126,1.062,0.377,1.364
		c0.251,0.304,0.68,0.455,1.286,0.455c0.298,0,0.707-0.056,1.229-0.167v2.083c-0.681,0.186-1.342,0.278-1.984,0.278
		c-1.155,0-2.026-0.35-2.613-1.049c-0.587-0.698-0.88-1.69-0.88-2.977V22.49h-2.754v-1.998h2.754v-3.661H116.164z"/>
	<path fill="#FFFFFF" d="M130.809,31.602c0-0.699-0.264-1.241-0.79-1.628s-1.443-0.72-2.753-0.999
		c-1.309-0.28-2.347-0.615-3.115-1.007c-0.769-0.391-1.338-0.856-1.705-1.397c-0.368-0.54-0.553-1.183-0.553-1.928
		c0-1.239,0.524-2.287,1.572-3.144c1.048-0.857,2.388-1.285,4.018-1.285c1.714,0,3.104,0.442,4.172,1.327
		c1.066,0.885,1.6,2.017,1.6,3.396h-2.6c0-0.708-0.3-1.318-0.901-1.831c-0.601-0.512-1.357-0.769-2.271-0.769
		c-0.94,0-1.677,0.205-2.208,0.615c-0.53,0.41-0.796,0.945-0.796,1.607c0,0.624,0.246,1.095,0.74,1.411
		c0.494,0.317,1.386,0.62,2.676,0.908c1.291,0.289,2.336,0.634,3.138,1.034c0.801,0.401,1.395,0.883,1.781,1.446
		s0.58,1.25,0.58,2.062c0,1.351-0.54,2.434-1.621,3.249c-1.081,0.814-2.482,1.223-4.206,1.223c-1.211,0-2.282-0.215-3.214-0.644
		c-0.932-0.428-1.661-1.027-2.187-1.796c-0.526-0.769-0.79-1.6-0.79-2.494h2.585c0.047,0.866,0.394,1.554,1.041,2.062
		s1.502,0.762,2.564,0.762c0.979,0,1.763-0.198,2.354-0.594C130.513,32.791,130.809,32.263,130.809,31.602z"/>
	<path fill="#FFFFFF" d="M148.401,30.287h-8.524l-1.914,5.324h-2.767l7.77-20.345h2.348l7.783,20.345h-2.753L148.401,30.287z
		 M140.688,28.094h6.917l-3.466-9.516L140.688,28.094z"/>
	<path fill="#FFFFFF" d="M168.201,28.22c0,2.301-0.525,4.155-1.579,5.562c-1.053,1.406-2.478,2.11-4.275,2.11
		c-1.836,0-3.279-0.582-4.332-1.747v7.28h-2.585V20.492h2.361l0.126,1.677c1.053-1.304,2.516-1.956,4.388-1.956
		c1.816,0,3.253,0.685,4.312,2.054c1.057,1.37,1.585,3.275,1.585,5.716V28.22z M165.616,27.926c0-1.704-0.363-3.05-1.09-4.038
		c-0.727-0.987-1.724-1.481-2.99-1.481c-1.565,0-2.739,0.694-3.521,2.082v7.224c0.773,1.379,1.956,2.068,3.55,2.068
		c1.238,0,2.224-0.491,2.955-1.475C165.251,31.324,165.616,29.863,165.616,27.926z"/>
	<path fill="#FFFFFF" d="M184.257,28.22c0,2.301-0.525,4.155-1.579,5.562c-1.053,1.406-2.478,2.11-4.275,2.11
		c-1.836,0-3.279-0.582-4.332-1.747v7.28h-2.585V20.492h2.361l0.126,1.677c1.053-1.304,2.516-1.956,4.388-1.956
		c1.816,0,3.253,0.685,4.312,2.054c1.057,1.37,1.585,3.275,1.585,5.716V28.22z M181.672,27.926c0-1.704-0.363-3.05-1.09-4.038
		c-0.727-0.987-1.724-1.481-2.99-1.481c-1.565,0-2.738,0.694-3.521,2.082v7.224c0.773,1.379,1.956,2.068,3.55,2.068
		c1.238,0,2.224-0.491,2.955-1.475C181.307,31.324,181.672,29.863,181.672,27.926z"/>
</g>
</svg>
